#!OML:ASF E:\Steps\Project 1\Capture day 1\Session 2\Subject.ASF
:FULLY-SPECIFIED
:DEGREES
839
root 20.3975 15.4472 -8.04173 11.6322 80.3229 -6.32563
lowerback -30.3483 1.15032 -4.0905
upperback 0.135326 3.35445 -1.33267
thorax 16.0501 1.26854 2.17108
lowerneck -2.02143 2.68446 -0.311231
upperneck 11.4622 3.4402 3.50906
head 4.03135 1.91144 1.36882
rclavicle 3.54334e-014 -2.3059e-014
rhumerus -25.0805 -3.69609 -89.05
rradius 40.9384
rwrist -8.6596
rhand 39.6622 -67.0545
rfingers 7.12502
rthumb 62.1146 -78.405
lclavicle 3.54334e-014 -2.3059e-014
lhumerus -39.9853 18.9952 68.1637
lradius 6.81443
lwrist -16.7721
lhand -21.1404 -9.34327
lfingers 7.12502
lthumb 5.23877 20.572
rfemur -7.05418 6.96773 24.2569
rtibia 22.1843
rfoot -27.7408 -0.902692
rtoes -36.6316
lfemur -44.3486 -10.2013 -4.31194
ltibia 9.33812
lfoot -7.76959 16.479
ltoes -29.3894
840
root 20.5468 15.4353 -8.05143 10.8444 79.7042 -7.2275
lowerback -30.4588 1.34242 -4.00331
upperback 0.0676033 3.5715 -1.28715
thorax 16.0111 1.37061 2.26364
lowerneck -1.81423 2.71207 -0.437586
upperneck 11.0119 3.48211 3.53937
head 3.82684 1.91965 1.38653
rclavicle 3.2551e-014 1.03368e-014
rhumerus -25.4768 -3.1842 -89.0544
rradius 41.1387
rwrist -9.05863
rhand 39.6333 -67.277
rfingers 7.12502
rthumb 62.0905 -78.6578
lclavicle 3.2551e-014 1.03368e-014
lhumerus -39.9174 19.0326 68.4463
lradius 6.90671
lwrist -16.8313
lhand -20.4355 -9.38642
lfingers 7.12502
lthumb 5.91938 20.5109
rfemur -7.07095 7.31528 24.1487
rtibia 23.0583
rfoot -27.5809 0.550325
rtoes -32.9028
lfemur -44.0503 -9.37295 -4.73629
ltibia 10.1231
lfoot -7.64344 15.9792
ltoes -30.7621
841
root 20.7035 15.4206 -8.06361 11.2587 79.1986 -6.80473
lowerback -30.4818 1.43658 -4.08674
upperback 0.0089777 3.73087 -1.32261
thorax 15.9401 1.43931 2.33369
lowerneck -1.59056 2.65934 -0.551543
upperneck 10.6582 3.40497 3.69458
head 3.65635 1.87702 1.44137
rclavicle -1.13307e-014 -3.97569e-015
rhumerus -25.7569 -3.3316 -89.0794
rradius 40.936
rwrist -8.93431
rhand 39.5559 -67.2998
rfingers 7.12502
rthumb 62.0261 -78.7612
lclavicle -1.13307e-014 -3.97569e-015
lhumerus -39.9869 19.0881 68.6223
lradius 7.08123
lwrist -17.1887
lhand -19.8321 -9.91272
lfingers 7.12502
lthumb 6.50192 19.9675
rfemur -6.92566 8.26505 23.9888
rtibia 23.9839
rfoot -27.4077 0.98982
rtoes -29.1397
lfemur -43.5803 -9.04695 -5.32868
ltibia 10.5683
lfoot -6.93901 15.8626
ltoes -32.8429
842
root 20.873 15.3998 -8.08153 14.672 79.2463 -3.20253
lowerback -30.4841 1.18798 -4.75965
upperback 0.0307431 3.68003 -1.49833
thorax 15.9375 1.3741 2.48488
lowerneck -1.72645 2.89045 -0.394122
upperneck 10.9305 3.74377 3.29086
head 3.7798 2.03808 1.30148
rclavicle -2.04748e-014 7.95139e-016
rhumerus -26.0366 -3.32614 -89.0969
rradius 40.5974
rwrist -8.92366
rhand 39.4896 -67.0988
rfingers 7.12502
rthumb 61.9707 -78.6291
lclavicle -2.04748e-014 7.95139e-016
lhumerus -40.1084 19.0792 68.7
lradius 7.3869
lwrist -17.3593
lhand -19.9311 -10.0798
lfingers 7.12502
lthumb 6.40633 19.8033
rfemur -6.51273 6.7767 22.8615
rtibia 24.437
rfoot -26.8774 1.65241
rtoes -30.1823
lfemur -43.1398 -9.27218 -6.77836
ltibia 10.8255
lfoot -5.81639 15.4317
ltoes -31.6357
843
root 21.0466 15.3879 -8.10859 14.4925 79.1806 -3.48878
lowerback -30.7668 1.19742 -4.48419
upperback -0.0132136 3.62679 -1.57487
thorax 16.0428 1.37301 2.23888
lowerneck -1.48913 2.78426 -0.521203
upperneck 10.5327 3.58467 3.55539
head 3.5909 1.95862 1.39035
rclavicle -2.32578e-014 7.15625e-015
rhumerus -26.2642 -3.92596 -89.0975
rradius 40.0569
rwrist -8.16904
rhand 39.5366 -67.008
rfingers 7.12502
rthumb 62.01 -78.4895
lclavicle -2.32578e-014 7.15625e-015
lhumerus -40.1461 19.1211 68.7012
lradius 7.58552
lwrist -17.3151
lhand -19.9321 -9.85174
lfingers 7.12502
lthumb 6.40535 20.0314
rfemur -6.4443 7.11643 22.7962
rtibia 25.482
rfoot -26.5458 1.70477
rtoes -29.52
lfemur -42.846 -8.73878 -7.54304
ltibia 10.7841
lfoot -3.50035 14.8544
ltoes -35.3584
